HIERARCHY
ROOT Hips
{
	OFFSET 55.310501 45.591206 43.872097
	CHANNELS 6 Xposition Yposition Zposition Zrotation Xrotation Yrotation
	JOINT Chest
	{
		OFFSET -0.153500 1.163101 7.852402
		CHANNELS 6 Xposition Yposition Zposition Zrotation Xrotation Yrotation
		JOINT Chest2
		{
			OFFSET 0.000000 0.000000 3.343300
			CHANNELS 6 Xposition Yposition Zposition Zrotation Xrotation Yrotation
			JOINT Neck
			{
				OFFSET 0.000000 0.000000 7.785500
				CHANNELS 6 Xposition Yposition Zposition Zrotation Xrotation Yrotation
				JOINT Head
				{
					OFFSET 0.000000 0.000000 2.173901
					CHANNELS 6 Xposition Yposition Zposition Zrotation Xrotation Yrotation
					End Site
					{
						OFFSET 0.000000 0.000000 10.528198
					}
				}
			}
			JOINT LeftCollar
			{
				OFFSET 2.676300 -1.652401 4.938301
				CHANNELS 6 Xposition Yposition Zposition Zrotation Xrotation Yrotation
				JOINT LeftShoulder
				{
					OFFSET 4.299000 0.000000 0.000000
					CHANNELS 6 Xposition Yposition Zposition Zrotation Xrotation Yrotation
					JOINT LeftElbow
					{
						OFFSET 0.000000 0.000000 -10.245102
						CHANNELS 6 Xposition Yposition Zposition Zrotation Xrotation Yrotation
						JOINT LeftWrist
						{
							OFFSET 0.000000 0.000000 -12.703300
							CHANNELS 6 Xposition Yposition Zposition Zrotation Xrotation Yrotation
							End Site
							{
								OFFSET 0.000000 0.000000 -2.173901
							}
						}
					}
				}
			}
			JOINT RightCollar
			{
				OFFSET -2.534599 -1.686401 5.195000
				CHANNELS 6 Xposition Yposition Zposition Zrotation Xrotation Yrotation
				JOINT RightShoulder
				{
					OFFSET -4.144100 0.000000 0.000000
					CHANNELS 6 Xposition Yposition Zposition Zrotation Xrotation Yrotation
					JOINT RightElbow
					{
						OFFSET 0.000000 0.000000 -10.116501
						CHANNELS 6 Xposition Yposition Zposition Zrotation Xrotation Yrotation
						JOINT RightWrist
						{
							OFFSET 0.000000 0.000000 -12.937801
							CHANNELS 6 Xposition Yposition Zposition Zrotation Xrotation Yrotation
							End Site
							{
								OFFSET 0.000000 0.000000 -2.173901
							}
						}
					}
				}
			}
		}
	}
	JOINT LeftHip
	{
		OFFSET 2.175598 0.064499 -2.662899
		CHANNELS 6 Xposition Yposition Zposition Zrotation Xrotation Yrotation
		JOINT LeftKnee
		{
			OFFSET 0.000000 -0.000004 -18.585800
			CHANNELS 6 Xposition Yposition Zposition Zrotation Xrotation Yrotation
			JOINT LeftAnkle
			{
				OFFSET 0.000000 0.000000 -18.979500
				CHANNELS 6 Xposition Yposition Zposition Zrotation Xrotation Yrotation
				End Site
				{
					OFFSET 0.000000 -9.264000 0.000000
				}
			}
		}
	}
	JOINT RightHip
	{
		OFFSET -2.092400 -0.058102 -2.581200
		CHANNELS 6 Xposition Yposition Zposition Zrotation Xrotation Yrotation
		JOINT RightKnee
		{
			OFFSET 0.000000 -0.000004 -18.665001
			CHANNELS 6 Xposition Yposition Zposition Zrotation Xrotation Yrotation
			JOINT RightAnkle
			{
				OFFSET 0.000000 0.000000 -18.566601
				CHANNELS 6 Xposition Yposition Zposition Zrotation Xrotation Yrotation
				End Site
				{
					OFFSET 0.000000 -8.497601 0.000000
				}
			}
		}
	}
}
MOTION
Frames: 5
Frame Time: 0.041667
68.472000 -35.737293 17.663990 3095.810016 36.902669 -16.231369 -0.153501 1.163102 7.852406 16.712093 35.087607 -10.198437 0.000006 0.000001 3.343301 -2.485350 -8.908982 0.100612 0.000007 0.000004 7.785499 -24.793518 25.582687 0.628061 -0.000001 -0.000001 2.173909 -5.641608 2.384372 -8.216621 2.676295 -1.652400 4.938298 -2.815876 6.772305 11.180197 4.299006 -0.000008 -0.000006 -402.128589 -37.919055 260.798151 -0.000002 -0.000009 -10.245098 -138.575905 785.780643 225.830711 0.000007 0.000003 -12.703306 1189.798299 -174.825850 556.593919 -2.534598 -1.686399 5.194994 6.451670 7.007435 -11.666950 -4.144108 -0.000002 -0.000004 158.286875 151.524031 -136.091301 -0.000002 0.000006 -10.116504 -266.779512 -140.589089 -283.292751 0.000007 -0.000006 -12.937803 -1103.662510 -32.670700 -76.773703 2.175597 0.064505 -2.662893 -943.423540 -20.759115 145.140755 -0.000013 -0.000009 -18.585800 380.675047 -197.201468 -72.555180 -0.000008 -0.000003 -18.979498 733.764818 5.113791 -713.505494 -2.092394 -0.058097 -2.581196 1290.382069 -5.396320 -111.916782 0.000003 0.000004 -18.665012 -1177.919015 41.597071 -885.030614 -0.000006 0.000005 -18.566595 693.875912 -25.030550 -33.555466
68.449997 -35.732800 17.691099 3095.862034 36.904352 -16.222027 -0.153504 1.163104 7.852398 16.608071 35.118247 -10.250677 0.000004 -0.000004 3.343301 -2.463605 -8.889026 0.101780 0.000000 0.000002 7.785496 -24.689015 25.382310 0.701655 0.000002 0.000005 2.173907 -5.614669 2.307754 -8.303462 2.676295 -1.652398 4.938306 -2.580260 6.607630 11.203419 4.299009 -0.000008 -0.000008 -402.268636 -37.886219 260.912735 0.000006 -0.000007 -10.245099 -138.050254 785.878397 225.496100 0.000004 0.000008 -12.703297 1190.081342 -174.815755 556.567090 -2.534595 -1.686405 5.195006 6.688205 7.179923 -11.412391 -4.144106 0.000004 -0.000002 158.707450 151.499852 -136.768610 0.000004 0.000006 -10.116493 -267.216562 -140.412761 -283.396406 -0.000009 0.000010 -12.937793 -1103.441103 -32.575170 -76.449734 2.175596 0.064501 -2.662895 -943.480914 -20.745921 145.103640 -0.000004 -0.000006 -18.585800 380.755507 -197.103482 -72.569230 -0.000002 -0.000003 -18.979500 733.852846 5.125838 -713.491232 -2.092400 -0.058101 -2.581199 1290.358573 -5.391919 -111.817635 -0.000009 -0.000003 -18.665010 -1178.153100 41.606633 -884.849095 -0.000001 0.000001 -18.566603 693.707180 -25.021068 -33.594678
68.426804 -35.728504 17.718098 3095.947494 37.013960 -16.208450 -0.153499 1.163100 7.852410 16.450521 35.010833 -10.208705 0.000009 0.000003 3.343308 -2.462187 -8.850495 0.102202 -0.000003 0.000010 7.785504 -24.378103 25.255869 0.495383 0.000011 0.000001 2.173899 -5.648634 2.208670 -8.284622 2.676299 -1.652397 4.938304 -2.190780 6.366567 11.201243 4.298992 -0.000011 -0.000007 -402.458897 -37.527354 261.008740 0.000004 -0.000008 -10.245095 -137.144598 785.865228 224.916395 0.000004 -0.000001 -12.703301 1190.362199 -174.796671 556.526546 -2.534598 -1.686395 5.195007 6.931857 7.272494 -11.325256 -4.144098 -0.000003 0.000002 159.256037 151.288075 -137.391058 0.000014 -0.000003 -10.116501 -267.850513 -140.252074 -283.419082 -0.000007 0.000004 -12.937794 -1103.478805 -31.981958 -76.514702 2.175598 0.064499 -2.662891 -943.444960 -20.659575 145.197241 -0.000005 -0.000007 -18.585804 380.916508 -196.854316 -72.581155 -0.000003 -0.000003 -18.979500 734.041304 5.098968 -713.342990 -2.092390 -0.058103 -2.581191 1290.341306 -5.286066 -111.739279 0.000000 -0.000005 -18.665010 -1178.234515 41.665226 -884.779372 -0.000004 -0.000007 -18.566605 693.636856 -25.014427 -33.639969
68.409492 -35.724384 17.735794 3096.057870 37.034068 -16.239104 -0.153513 1.163100 7.852406 16.423724 34.983601 -10.273305 -0.000004 0.000005 3.343302 -2.430198 -8.833012 0.102341 0.000008 0.000000 7.785509 -24.329296 25.144430 0.383327 -0.000005 -0.000002 2.173911 -5.622654 2.104182 -8.189447 2.676293 -1.652391 4.938305 -2.083038 6.232863 11.225639 4.299004 -0.000008 -0.000007 -402.551351 -37.441553 261.022291 -0.000000 -0.000004 -10.245093 -136.222304 785.900581 224.245684 0.000003 0.000012 -12.703303 1190.651690 -174.770553 556.508295 -2.534596 -1.686398 5.195006 6.905636 7.180093 -11.384218 -4.144094 -0.000000 0.000000 159.142479 151.434351 -137.476081 0.000006 0.000002 -10.116495 -268.059271 -140.074858 -283.722670 0.000000 -0.000004 -12.937801 -1103.389849 -31.571887 -76.373345 2.175595 0.064503 -2.662895 -943.435124 -20.634963 145.241527 -0.000007 -0.000007 -18.585808 381.095486 -196.652908 -72.578280 0.000003 -0.000004 -18.979500 734.176378 5.069852 -713.186879 -2.092394 -0.058100 -2.581205 1290.290162 -5.296886 -111.663443 -0.000007 0.000011 -18.665012 -1178.216921 41.734225 -884.804507 -0.000005 0.000000 -18.566599 693.633140 -25.003958 -33.696093
68.395790 -35.722790 17.747005 3096.108795 37.077986 -16.255770 -0.153502 1.163094 7.852412 16.556572 34.931172 -10.297893 0.000006 0.000000 3.343302 -2.429036 -8.854811 0.099702 0.000003 0.000000 7.785499 -24.522804 25.176125 0.377532 0.000015 -0.000001 2.173906 -5.523086 1.985004 -8.202450 2.676297 -1.652393 4.938297 -2.164679 6.229489 11.197627 4.299004 -0.000006 -0.000008 -402.550586 -37.560990 260.931477 0.000000 -0.000000 -10.245101 -135.111797 785.940415 223.315152 -0.000001 0.000009 -12.703299 1190.985987 -174.738382 556.474472 -2.534594 -1.686403 5.194997 6.657197 6.927142 -11.609740 -4.144110 0.000004 -0.000002 158.993184 151.470769 -137.287048 0.000003 0.000006 -10.116509 -268.266690 -139.964086 -284.072704 -0.000002 0.000002 -12.937796 -1103.251934 -31.160040 -76.230512 2.175589 0.064495 -2.662892 -943.487799 -20.459570 145.206243 -0.000004 -0.000008 -18.585804 381.182913 -196.083174 -72.640933 -0.000008 -0.000003 -18.979498 734.565863 4.922842 -712.709695 -2.092392 -0.058105 -2.581192 1290.285353 -5.456894 -111.615891 0.000001 0.000004 -18.665016 -1178.072012 41.862014 -885.035313 -0.000011 0.000003 -18.566601 693.772804 -24.981096 -33.769903
